PathFileType	4	(X/Y/Z)	SUBJ59_3_walk_RCNL2025.trc
DataRate	CameraRate	NumFrames	NumMarkers	Units	OrigDataRate	OrigDataStartFrame	OrigNumFrames
100	100	12	25	mm	100	1	306
Frame#	Time	R_Shoulder			L_Shoulder			C7			J_Notch			R_Elbow			L_Elbow			R_Wrist			L_Wrist			R_Asis			L_Asis			Sacral			Thoracic			Sternum			R_Thigh_Lateral			R_Knee_Lateral			R_Shank_Lateral			R_Ankle_Lateral			R_Heel			R_Toe			L_Thigh_Lateral			L_Knee_Lateral			L_Shank_Lateral			L_Ankle_Lateral			L_Heel			L_Toe		
		X1	Y1	Z1	X2	Y2	Z2	X3	Y3	Z3	X4	Y4	Z4	X5	Y5	Z5	X6	Y6	Z6	X7	Y7	Z7	X8	Y8	Z8	X9	Y9	Z9	X10	Y10	Z10	X11	Y11	Z11	X12	Y12	Z12	X13	Y13	Z13	X14	Y14	Z14	X15	Y15	Z15	X16	Y16	Z16	X17	Y17	Z17	X18	Y18	Z18	X19	Y19	Z19	X20	Y20	Z20	X21	Y21	Z21	X22	Y22	Z22	X23	Y23	Z23	X24	Y24	Z24	X25	Y25	Z25
1	0.00000000	-1192.582886	1458.809204	48.155338	-1210.614624	1461.883423	-350.824799	-1293.986084	1547.272339	-151.086899	-1133.985107	1445.167236	-154.177536	-1212.239502	1155.164062	165.628616	-1293.217529	1122.442749	-431.667053	-1116.733276	890.835388	167.616295	-1298.509277	857.192108	-419.026932	-1168.367554	981.674805	-10.093791	-1145.311523	988.856689	-235.045029	-1364.092041	1015.536377	-146.191132	-1367.084595	1332.540283	-154.490860	-1089.262207	1248.658813	-144.024643	-1257.260010	591.039307	93.235939	-1272.621826	498.944397	44.686653	-1410.208130	351.681030	121.994125	-1606.629272	203.456619	8.917483	-1635.405396	231.212784	-36.147209	-1534.196289	68.615204	-41.869785	-1152.002441	607.922913	-323.906677	-1123.171753	503.664886	-266.529510	-1125.450073	306.923462	-322.786041	-1155.292236	81.213524	-251.018326	-1205.617676	55.649643	-202.171997	-1000.819885	40.793133	-200.505798
2	0.01000000	-1182.662109	1460.125732	48.518219	-1198.106934	1463.597290	-350.837250	-1282.787354	1548.883789	-151.587952	-1122.769653	1447.006592	-154.168579	-1205.313843	1155.384888	164.821396	-1275.221558	1123.028687	-432.108429	-1112.377991	890.497925	167.774696	-1277.235168	857.962128	-419.603378	-1156.576904	983.335510	-10.931334	-1134.175171	990.060181	-236.299377	-1357.475342	1016.334839	-146.129654	-1355.551880	1333.982788	-155.612778	-1077.810059	1250.434692	-144.027527	-1236.243408	592.684692	93.710983	-1249.125000	499.964783	45.471088	-1385.964478	353.013245	122.034943	-1584.041260	207.147736	8.532287	-1612.878540	233.920044	-36.983471	-1509.983765	72.191383	-40.478313	-1145.924683	608.110718	-324.214844	-1118.336304	503.460419	-266.880219	-1123.132202	306.664276	-322.708679	-1155.010498	81.295349	-250.839600	-1205.420166	55.485203	-201.705673	-1000.774292	40.855339	-200.471573
3	0.02000000	-1172.799805	1461.449585	49.052723	-1185.892700	1465.427979	-350.707245	-1271.737549	1550.504028	-151.903214	-1111.689209	1448.864868	-154.044693	-1198.457275	1155.681030	164.109863	-1257.037354	1123.825073	-432.552673	-1108.242676	890.156708	167.906357	-1255.537109	858.945892	-420.120117	-1144.930298	985.052368	-11.830636	-1123.179688	991.254211	-237.541336	-1349.146729	1017.371887	-146.008820	-1344.157959	1335.420898	-156.650665	-1066.502930	1252.248657	-144.015396	-1215.470703	594.764526	94.202904	-1225.984131	501.471283	46.208145	-1361.987671	354.892670	121.952881	-1560.363281	209.577423	8.040007	-1589.401978	235.041626	-38.016968	-1483.728027	75.018501	-39.296440	-1139.945068	608.324829	-324.493530	-1113.678589	503.222412	-267.139740	-1120.458008	306.400360	-322.596832	-1154.785156	81.366951	-250.707672	-1205.233643	55.340797	-201.281296	-1000.716064	40.907730	-200.440552
4	0.03000000	-1162.996826	1462.764893	49.706333	-1173.972412	1467.371460	-350.459259	-1260.839966	1552.102295	-152.046188	-1100.725220	1450.721313	-153.816360	-1191.662598	1156.069214	163.473038	-1238.845581	1124.899292	-433.087128	-1104.283447	889.819763	167.997742	-1233.458252	860.183044	-420.556274	-1133.463501	986.788513	-12.805701	-1112.325928	992.441467	-238.748352	-1339.439819	1018.611816	-145.811279	-1332.883911	1336.824707	-157.587204	-1055.322144	1254.083374	-144.010254	-1194.977051	597.139832	94.683342	-1203.188721	503.369659	46.869568	-1338.266235	357.089691	121.791824	-1535.627686	210.637665	7.502110	-1565.015503	234.567673	-39.129757	-1455.637207	77.043312	-38.369690	-1134.019531	608.557556	-324.730194	-1109.198730	502.956818	-267.297394	-1117.551270	306.117462	-322.448456	-1154.614258	81.432907	-250.612167	-1205.066650	55.250340	-200.929977	-1000.648376	40.942814	-200.400757
5	0.04000000	-1153.257812	1464.051392	50.433140	-1162.332275	1469.412476	-350.121277	-1250.094360	1553.648315	-152.036819	-1089.864502	1452.550781	-153.480438	-1184.930054	1156.539185	162.889893	-1220.744507	1126.272705	-433.732758	-1100.467346	889.493439	168.048149	-1211.040710	861.701233	-420.891708	-1122.172485	988.497070	-13.851269	-1101.622437	993.617065	-239.888779	-1328.759033	1019.996460	-145.522339	-1321.712402	1338.163940	-158.408936	-1044.251099	1255.914062	-144.030655	-1174.792603	599.676086	95.118370	-1180.709106	505.557892	47.417328	-1314.759399	359.342194	121.571579	-1509.856079	210.251602	6.949105	-1539.745605	232.522736	-40.231396	-1425.904175	78.257401	-37.685799	-1128.145874	608.795044	-324.908691	-1104.922607	502.670502	-267.347656	-1114.579590	305.821503	-322.267181	-1154.502930	81.495178	-250.541519	-1204.923218	55.237682	-200.663467	-1000.578430	40.951042	-200.341095
6	0.05000000	-1143.587646	1465.284668	51.198765	-1150.949463	1471.523315	-349.716431	-1239.494629	1555.116089	-151.898758	-1079.099487	1454.328369	-153.031372	-1178.256836	1157.064087	162.343002	-1202.782471	1127.926880	-434.467499	-1096.765015	889.175354	168.061676	-1188.322632	863.520416	-421.112900	-1110.994751	990.141296	-14.932582	-1091.073853	994.770569	-240.932053	-1317.481812	1021.456726	-145.132324	-1310.629761	1339.411377	-159.106049	-1033.274780	1257.713867	-144.088837	-1154.950073	602.263916	95.475533	-1158.544922	507.941071	47.811649	-1291.418579	361.425293	121.300911	-1483.063354	208.379578	6.385418	-1513.605469	228.957642	-41.263485	-1394.699219	78.690155	-37.189541	-1122.354248	609.022949	-325.013519	-1100.882935	502.373505	-267.292023	-1111.709961	305.532349	-322.057373	-1154.459229	81.555145	-250.485611	-1204.806274	55.319496	-200.482132	-1000.509399	40.927280	-200.252243
7	0.06000000	-1133.987183	1466.437988	51.981731	-1139.794067	1473.665161	-349.256958	-1229.026978	1556.484131	-151.655029	-1068.426270	1456.035156	-152.472595	-1171.631714	1157.606812	161.819275	-1184.984985	1129.812866	-435.252380	-1093.145935	888.852325	168.042023	-1165.340149	865.654816	-421.216232	-1099.807007	991.709045	-15.989233	-1080.656006	995.885925	-241.866821	-1305.912354	1022.921936	-144.639648	-1299.626953	1340.544434	-159.672165	-1022.377380	1259.458496	-144.189056	-1135.486816	604.825745	95.726784	-1136.733154	510.442932	48.023838	-1268.183960	363.176147	120.987015	-1455.271240	205.043808	5.811962	-1486.599365	223.949112	-42.193554	-1362.167480	78.403763	-36.804089	-1116.687988	609.231201	-325.034546	-1097.105225	502.078430	-267.137421	-1109.076538	305.273224	-321.822662	-1154.488159	81.614395	-250.436386	-1204.719727	55.508831	-200.384232	-1000.434326	40.876434	-200.127670
8	0.07000000	-1124.452026	1467.482178	52.772533	-1128.829468	1475.793945	-348.744781	-1218.672729	1557.734619	-151.324203	-1057.841064	1457.657959	-151.818909	-1165.034302	1158.124268	161.309418	-1167.373047	1131.860962	-436.049927	-1089.580017	888.505310	167.993706	-1142.135925	868.109039	-421.204926	-1088.453735	993.212463	-16.956547	-1070.303833	996.943359	-242.709305	-1294.267090	1024.325928	-144.052811	-1288.697388	1341.545776	-160.105606	-1011.540894	1261.126831	-144.326797	-1116.440308	607.312622	95.848778	-1115.323486	513.009094	48.043644	-1244.971069	364.485870	120.635017	-1426.516846	200.347931	5.248590	-1458.725220	217.605484	-43.003220	-1328.433960	77.485825	-36.448551	-1111.185669	609.416687	-324.968536	-1093.601807	501.797424	-266.894318	-1106.761597	305.060516	-321.568115	-1154.581299	81.675514	-250.385254	-1204.667358	55.813377	-200.369751	-1000.342468	40.809795	-199.965591
9	0.08000000	-1114.973267	1468.388184	53.572048	-1118.013916	1477.867065	-348.177521	-1208.411133	1558.851685	-150.918030	-1047.338013	1459.186279	-151.092514	-1158.440552	1158.573120	160.810410	-1149.973267	1134.001709	-436.840759	-1086.039856	888.113922	167.923988	-1118.760010	870.872955	-421.084106	-1076.797974	994.672668	-17.788006	-1059.939209	997.921021	-243.487534	-1282.681152	1025.612183	-143.390060	-1277.834961	1342.402710	-160.410400	-1000.745972	1262.700806	-144.488419	-1097.841919	609.697388	95.825317	-1094.349976	515.600891	47.877956	-1221.670898	365.283386	120.246155	-1396.845825	194.463898	4.733743	-1429.974731	210.063904	-43.681324	-1293.611694	76.040070	-36.050213	-1105.869873	609.582581	-324.820435	-1090.371338	501.538788	-266.576630	-1104.788574	304.898621	-321.301483	-1154.711182	81.744072	-250.320374	-1204.651001	56.230530	-200.437836	-1000.230469	40.738693	-199.771500
10	0.09000000	-1105.539795	1469.129028	54.389114	-1107.302979	1479.845337	-347.551575	-1198.221802	1559.820435	-150.441162	-1036.907715	1460.607544	-150.317032	-1151.830078	1158.916626	160.328827	-1132.820068	1136.186035	-437.632385	-1082.499817	887.656891	167.840446	-1095.263245	873.923981	-420.859436	-1064.768066	996.101135	-18.462309	-1049.509644	998.793945	-244.218918	-1271.224121	1026.737549	-142.677444	-1267.033936	1343.105713	-160.594803	-989.975708	1264.163696	-144.653214	-1079.711426	611.967773	95.651505	-1073.823853	518.184448	47.546871	-1198.166748	365.524353	119.822395	-1366.294922	187.593109	4.305873	-1400.334595	201.479706	-44.221603	-1257.808716	74.177002	-35.553467	-1100.746460	609.735657	-324.604370	-1087.400879	501.304688	-266.201416	-1103.127686	304.781616	-321.030823	-1154.838257	81.828575	-250.229553	-1204.667480	56.741631	-200.576523	-1000.106445	40.673813	-199.561172
11	0.10000000	-1096.139038	1469.681641	55.236759	-1096.652832	1481.692749	-346.860718	-1188.086548	1560.626587	-149.893280	-1026.538086	1461.903931	-149.511795	-1145.188721	1159.126831	159.879822	-1115.950806	1138.382446	-438.452332	-1078.934448	887.111145	167.747353	-1071.693054	877.236938	-420.538254	-1052.380005	997.489502	-18.976952	-1039.000854	999.531921	-244.904587	-1259.918335	1027.672974	-141.945633	-1256.288696	1343.647583	-160.669403	-979.218567	1265.499146	-144.796371	-1062.052612	614.119873	95.335854	-1053.750122	520.717529	47.078419	-1174.358887	365.184296	119.373047	-1334.890381	179.933243	3.989769	-1369.792603	192.020859	-44.620346	-1221.133667	72.008255	-34.923985	-1095.807251	609.882507	-324.341766	-1084.668213	501.093140	-265.787384	-1101.711304	304.700592	-320.761841	-1154.930786	81.937248	-250.107376	-1204.704956	57.309364	-200.752350	-999.989014	40.625313	-199.360153
12	0.11000000	-1086.755005	1470.027710	56.128231	-1086.025879	1483.378052	-346.095215	-1177.989014	1561.257080	-149.271545	-1016.215088	1463.051392	-148.688644	-1138.504761	1159.181641	159.481262	-1099.394775	1140.563721	-439.331818	-1075.319153	886.453583	167.645935	-1048.097778	880.787079	-420.129181	-1039.732666	998.807861	-19.341585	-1028.424438	1000.100403	-245.535721	-1248.756226	1028.400635	-141.225998	-1245.593262	1344.020874	-160.646164	-968.468018	1266.688843	-144.893066	-1044.851196	616.151001	94.899139	-1034.150635	523.142334	46.503853	-1150.184692	364.254547	118.917084	-1302.659790	171.670135	3.797573	-1338.344971	181.864487	-44.878029	-1183.696533	69.646271	-34.145611	-1091.031250	610.025391	-324.058624	-1082.142456	500.902588	-265.354340	-1100.454590	304.650940	-320.496765	-1154.975708	82.076057	-249.956192	-1204.745972	57.887726	-200.917480	-999.899658	40.597500	-199.191879
